{"title":"Santiago Alvarez - Abril de Vietnam en el ano del gato (1975)","uid":6081834,"size":1610530857,"categoryP":"video","categoryS":"movies","magnet":"?xt=urn:btih:3bcd628ead3b0dd8203d6e0299c91354650a8f8e&amp;dn=Santiago+Alvarez+-+Abril+de+Vietnam+en+el+ano+del+gato+%281975%29&amp;tr=udp%3A%2F%2Ftracker.openbittorrent.com%3A80&amp;tr=udp%3A%2F%2Fopen.demonii.com%3A1337&amp;tr=udp%3A%2F%2Ftracker.coppersurfer.tk%3A6969&amp;tr=udp%3A%2F%2Fexodus.desync.com%3A6969","seeders":1,"leechers":0,"uploader":"mfccorrea","files":3,"time":1294149296,"description":"Santiago Alvarez, founder of the Cuban film school and for years director of Noticiero ICAIC, toured various regions of the world to portray the events and significant personalities of the second half of the twentieth century. April in the Year of the Cat was a portrayal of the long struggle of the Vietnamese people for their independence in various historical periods, also covering its rich cultural tradition, in the soundtrack as well as the images. This film is itself an important witness to the final victory of the North Vietnamese Army, the U.S. withdrawal and the country's reunification after the fall of Saigon in the days of April 1975. \n\n   General\n      Complete name : Abril de Vietnam en el aÃƒÂ±o del gato.avi\n      Format : AVI\n      Format/Info : Audio Video Interleave\n      File size : 1.49 GiB\n      Duration : 2h 2mn\n      Overall bit rate : 1 733 Kbps\n      Writing application : FairUse Wizard - http://fairusewizard.com\n      Writing library : The best and REALLY easy backup tool\n   Video #0\n      ID : 0\n      Format : MPEG-4 Visual\n      Format profile : AdvancedSimple@L5\n      Format settings, BVOP : Yes\n      Format settings, QPel : No\n      Format settings, GMC : No warppoints\n      Format settings, Matrix : Default (MPEG)\n      Muxing mode : Packed bitstream\n      Codec ID : XVID\n      Codec ID/Hint : XviD\n      Duration : 2h 2mn\n      Bit rate : 1 532 Kbps\n      Width : 624 pixels\n      Height : 400 pixels\n      Display aspect ratio : 1.560\n      Frame rate : 23.976 fps\n      Resolution : 24 bits\n      Colorimetry : 4:2:0\n      Scan type : Progressive\n      Bits/(Pixel*Frame) : 0.256\n      Stream size : 1.32 GiB (88%)\n      Writing library : XviD 1.2.1 (UTC 2008-12-04)\n   Audio #1\n      ID : 1\n      Format : AC-3\n      Format/Info : Audio Coding 3\n      Codec ID : 2000\n      Duration : 2h 2mn\n      Bit rate mode : Constant\n      Bit rate : 192 Kbps\n      Channel(s) : 2 channels\n      Channel positions : L R\n      Sampling rate : 48.0 KHz\n      Stream size : 169 MiB (11%)\n      Alignment : Split accross interleaves\n      Interleave, duration : 42 ms (1.00 video frame)\n      Interleave, preload duration : 500 ms\n &lt;a href=&quot;\nhttp://www.imdb.com/title/tt0149580/&quot; rel=&quot;nofollow&quot; target=&quot;_NEW&quot;&gt;\nhttp://www.imdb.com/title/tt0149580/&lt;/a&gt;\n\nSpanish audio; multilanguage subpack (English, German, French, Italian, Spanish and Portuguese)\n\nMy rip\n\nSantiago Alvarez - Abril de Vietnam en el ano del gato (1975)","torrent":{"xt":"urn:btih:3bcd628ead3b0dd8203d6e0299c91354650a8f8e","amp;dn":"Santiago+Alvarez+-+Abril+de+Vietnam+en+el+ano+del+gato+%281975%29","amp;tr":["udp%3A%2F%2Ftracker.openbittorrent.com%3A80","udp%3A%2F%2Fopen.demonii.com%3A1337","udp%3A%2F%2Ftracker.coppersurfer.tk%3A6969","udp%3A%2F%2Fexodus.desync.com%3A6969"],"infoHash":"3bcd628ead3b0dd8203d6e0299c91354650a8f8e","infoHashBuffer":{"type":"Buffer","data":[59,205,98,142,173,59,13,216,32,61,110,2,153,201,19,84,101,10,143,142]},"announce":[],"urlList":[]}}